<svg width="24" height="24" viewBox="0 0 24 24" fill="none" xmlns="http://www.w3.org/2000/svg">
<path fill-rule="evenodd" clip-rule="evenodd" d="M12.0217 0.0900879C5.40747 0.0900879 0.0439453 5.54402 0.0439453 12.2724C0.0439453 17.6549 3.47595 22.2214 8.23507 23.8323C8.83372 23.9451 9.05347 23.568 9.05347 23.2462C9.05347 22.9557 9.04237 21.9961 9.03722 20.9781C5.70497 21.7151 5.00182 19.5407 5.00182 19.5407C4.45697 18.1326 3.67191 17.7582 3.67191 17.7582C2.58517 17.0021 3.75383 17.0176 3.75383 17.0176C4.95661 17.1034 5.58992 18.273 5.58992 18.273C6.65822 20.1355 8.39197 19.597 9.07547 19.2857C9.18297 18.4986 9.49342 17.9607 9.83592 17.6567C7.17552 17.3487 4.37882 16.3041 4.37882 11.6361C4.37882 10.306 4.84672 9.21927 5.61292 8.36612C5.48857 8.05907 5.07857 6.82022 5.72897 5.14217C5.72897 5.14217 6.73477 4.81476 9.02372 6.39092C9.97917 6.12102 11.0038 5.98562 12.0217 5.98102C13.0397 5.98562 14.0651 6.12102 15.0223 6.39092C17.3085 4.81476 18.3129 5.14217 18.3129 5.14217C18.9649 6.82022 18.5547 8.05907 18.4303 8.36612C19.1983 9.21927 19.6631 10.306 19.6631 11.6361C19.6631 16.3152 16.861 17.3454 14.1938 17.647C14.6235 18.0251 15.0063 18.7665 15.0063 19.9031C15.0063 21.5329 14.9924 22.8448 14.9924 23.2462C14.9924 23.5704 15.208 23.9503 15.8151 23.8307C20.5717 22.218 23.9993 17.6531 23.9993 12.2724C23.9993 5.54402 18.6366 0.0900879 12.0217 0.0900879Z" fill="white"/>
<path fill-rule="evenodd" clip-rule="evenodd" d="M4.5803 17.5811C4.55392 17.6418 4.4603 17.6597 4.37501 17.6182C4.28814 17.5784 4.23934 17.4959 4.26751 17.4352C4.29329 17.3729 4.38711 17.3557 4.47379 17.3971C4.56086 17.437 4.61045 17.5203 4.5803 17.5811Z" fill="white"/>
<path fill-rule="evenodd" clip-rule="evenodd" d="M5.06561 18.1315C5.00846 18.1853 4.89679 18.1603 4.82102 18.0752C4.74267 17.9902 4.728 17.8767 4.78591 17.822C4.84482 17.7681 4.95312 17.7933 5.03166 17.8783C5.11001 17.9642 5.12531 18.077 5.06561 18.1315Z" fill="white"/>
<path fill-rule="evenodd" clip-rule="evenodd" d="M5.53775 18.8332C5.46435 18.8851 5.34435 18.8365 5.27015 18.7281C5.1968 18.6198 5.1968 18.4899 5.27175 18.4378C5.34615 18.3858 5.46435 18.4326 5.53955 18.5401C5.6127 18.6501 5.6127 18.7802 5.53775 18.8332Z" fill="white"/>
<path fill-rule="evenodd" clip-rule="evenodd" d="M6.18487 19.5109C6.11922 19.5846 5.97937 19.5648 5.87702 19.4643C5.77232 19.3661 5.74317 19.2267 5.80902 19.1531C5.87547 19.0792 6.01607 19.1 6.11922 19.1997C6.22317 19.2977 6.25487 19.4381 6.18487 19.5109Z" fill="white"/>
<path fill-rule="evenodd" clip-rule="evenodd" d="M7.07738 19.9045C7.04843 19.9999 6.91373 20.0433 6.77808 20.0028C6.64263 19.961 6.55393 19.8492 6.58133 19.7528C6.60948 19.6568 6.74478 19.6116 6.88143 19.655C7.01668 19.6965 7.10558 19.8075 7.07738 19.9045Z" fill="white"/>
<path fill-rule="evenodd" clip-rule="evenodd" d="M8.05767 19.9776C8.06102 20.078 7.94597 20.1613 7.80357 20.1629C7.66037 20.1664 7.54452 20.0851 7.54297 19.9862C7.54297 19.8848 7.65542 19.8022 7.79862 19.7998C7.94102 19.797 8.05767 19.8777 8.05767 19.9776Z" fill="white"/>
<path fill-rule="evenodd" clip-rule="evenodd" d="M8.96991 19.8197C8.98696 19.9178 8.88796 20.0185 8.74656 20.0451C8.60751 20.0711 8.47881 20.0106 8.46116 19.9133C8.44386 19.8129 8.54466 19.7122 8.68351 19.6862C8.82511 19.6612 8.95186 19.7201 8.96991 19.8197Z" fill="white"/>
</svg>
