<svg width="30" height="30" viewBox="0 0 30 30" fill="none" xmlns="http://www.w3.org/2000/svg">
<rect width="30" height="30" rx="15" fill="white"/>
<g clip-path="url(#clip0_31_221)">
<path d="M9.82367 13.966V19.5488L14.2335 25.1796L14.1877 13.966H9.82367ZM12.6544 20.7361L11.3614 19.081V15.4777H12.6544V20.7361Z" fill="black"/>
<path d="M14.2954 25.3572L9.7627 19.5693V13.9059H14.2483V13.9658L14.2954 25.3572ZM9.88511 19.5283L14.1717 25.002L14.1269 14.0262H9.88489L9.88511 19.5283ZM12.7158 20.913L11.3003 19.1011V15.4176H12.7156L12.7158 20.913ZM11.4223 19.0605L12.5929 20.5591V15.5373H11.4223V19.0605Z" fill="#1B1C1E"/>
<path d="M17.3981 17.928L19.2103 16.1464L19.2069 16.1431V14.0054H17.7217V15.5449L16.3937 16.8505V14.0054H14.9085V25.1796L16.3937 23.3179V19.0054L17.1963 19.7945L17.1756 19.8206V22.3195L19.1736 19.8062L17.3981 17.928V17.928Z" fill="black"/>
<path d="M14.8472 25.3537V13.9454H16.4547V16.7054L17.6604 15.5201V13.9454H19.2679V16.1181L19.2968 16.1463L17.4829 17.9295L19.2539 19.803L17.1143 22.494V19.7995L16.4543 19.1506V23.3383L14.8472 25.3537ZM14.9695 14.0655V25.0055L16.3324 23.2971V18.8603L17.2776 19.7895L17.2366 19.8413V22.145L19.0933 19.8096L17.3131 17.9264L19.1455 16.1249V14.0655H17.7826V15.5699L16.3324 16.9956V14.0655H14.9695Z" fill="#1B1C1E"/>
<path d="M9.92847 13.7134V19.2962L14.2097 24.776V13.7134H9.92847ZM12.7592 20.4835L11.4661 18.8284V15.2251H12.7592V20.4835Z" fill="#1B1C1E"/>
<path d="M19.0601 19.39L17.2934 17.6532L19.1056 15.8716L19.1022 15.8682V13.7306H17.6169V15.2701L16.2889 16.5757V13.7306H14.8037V24.7537L16.2889 22.892V18.7305L17.0916 19.5196L17.0708 19.5458V21.9118L19.0654 19.403L19.0695 19.3992L19.0689 19.3986L19.0698 19.3975L19.0601 19.39V19.39Z" fill="#1B1C1E"/>
<path d="M9.75409 13.1368L9.8154 13.52C12.913 12.9605 16.0883 12.9605 19.1859 13.52L19.2472 13.1368C16.1091 12.5699 12.8922 12.5699 9.75409 13.1368V13.1368Z" fill="black"/>
<path d="M19.2365 13.5902L19.1749 13.5796C16.0847 13.02 12.9166 13.02 9.82638 13.5796L9.76474 13.5907L9.68439 13.0887L9.74301 13.0781C12.8883 12.5085 16.113 12.5085 19.2583 13.0781L19.3169 13.0887L19.2365 13.5902ZM14.4999 13.039C16.0543 13.0394 17.6055 13.1769 19.1349 13.4497L19.1773 13.1854C16.0847 12.6324 12.916 12.6324 9.82347 13.1854L9.86575 13.4497C11.3949 13.1769 12.9458 13.0394 14.4999 13.039V13.039Z" fill="#1B1C1E"/>
<path d="M21.8323 7.68934C21.5383 7.81229 21.2478 7.93944 20.961 8.07078C20.9669 8.29863 20.9719 8.52645 20.9761 8.75424C20.6028 8.93592 19.7763 9.29589 18.8603 9.4267C18.5542 8.99968 18.1916 8.39448 17.9674 7.68183C18.1374 7.47548 18.3101 7.2706 18.4855 7.06721C18.3431 6.7929 18.1969 6.5195 18.0469 6.24702C17.8474 6.48093 17.6514 6.71662 17.4591 6.95406C17.5945 7.19714 17.7269 7.44107 17.8562 7.68585L17.8555 7.68712C17.6977 7.95456 17.2927 8.57954 16.6722 9.10501C16.0069 8.76587 15.3429 8.1502 14.7119 7.09798C14.8944 6.82896 15.081 6.56159 15.2719 6.29587C15.0197 5.90946 14.7592 5.52612 14.4905 5.14584C14.2218 5.52612 13.9615 5.9096 13.7094 6.2963C13.9092 6.57407 14.1045 6.85374 14.2952 7.13531C13.7359 8.17579 13.1261 8.79622 12.4988 9.14456C11.8219 8.58546 11.3909 7.89671 11.2461 7.64207V7.64154C11.3739 7.40184 11.5046 7.16281 11.6383 6.92445C11.4465 6.68644 11.2511 6.45027 11.0522 6.21593C10.9017 6.48791 10.7546 6.76085 10.6112 7.03475C10.7934 7.24716 10.9727 7.4612 11.1491 7.67686C10.9112 8.42229 10.5203 9.0496 10.2036 9.47672C9.2652 9.32275 8.40572 8.93962 8.02428 8.75096C8.02837 8.52437 8.03339 8.29768 8.03934 8.07088C7.75249 7.93961 7.46205 7.81247 7.16803 7.68944C7.45976 8.11075 7.74388 8.53565 8.02041 8.96415C8.78107 10.1714 9.48385 11.4026 10.1288 12.6577C13.0229 12.1796 15.9779 12.1796 18.8721 12.6577C19.5516 11.3368 20.2954 10.0422 21.1034 8.77401V8.77338C21.341 8.40953 21.584 8.04818 21.8323 7.68934V7.68934ZM9.62039 11.0068C9.53907 10.7313 9.45549 10.4569 9.37191 10.182C9.61684 10.3428 9.85705 10.5071 10.0949 10.6738L10.3244 11.5037C10.0937 11.3355 9.85823 11.1688 9.62039 11.0068ZM11.9139 10.5438C11.8601 10.3006 11.8056 10.0588 11.7514 9.81575C11.7867 9.8111 11.8221 9.80761 11.859 9.80518C12.0462 9.95111 12.2299 10.1003 12.4124 10.2508C12.4689 10.5321 12.5251 10.8141 12.5808 11.0968C12.3626 10.9107 12.14 10.7257 11.9139 10.5438V10.5438ZM14.4994 11.6608C14.3464 11.207 14.186 10.7548 14.0179 10.3042C14.1722 9.84815 14.3327 9.39343 14.4994 8.94004C14.6679 9.39385 14.8288 9.84875 14.9822 10.3047C14.8138 10.7559 14.6529 11.2079 14.4994 11.6608ZM17.0861 10.5438C16.8602 10.7255 16.6376 10.9107 16.4192 11.0971C16.4746 10.8146 16.5308 10.5326 16.5877 10.2511C16.7705 10.1006 16.9534 9.95143 17.141 9.8055C17.1775 9.80782 17.2128 9.81131 17.2486 9.81607C17.1945 10.0588 17.1403 10.3007 17.0861 10.5438V10.5438ZM19.4038 10.8517C19.1648 11.0138 18.9293 11.1795 18.6974 11.3487C18.7727 11.0721 18.8505 10.7954 18.9281 10.5188C19.166 10.3521 19.4074 10.1877 19.6534 10.028C19.5681 10.3019 19.4857 10.5762 19.4038 10.8517Z" fill="black"/>
<path d="M14.557 8.91896L14.4994 8.76361L14.4421 8.91906C14.2807 9.35814 14.1181 9.81794 13.96 10.2851L13.9533 10.305L13.9606 10.3247C14.1411 10.8122 14.2985 11.2553 14.4416 11.6797L14.4993 11.8511L14.5576 11.6798C14.7182 11.2072 14.8759 10.764 15.0398 10.3248L15.0471 10.3051L15.0403 10.2851C14.8763 9.80017 14.7182 9.35327 14.557 8.91896V8.91896ZM14.4998 11.4714C14.3739 11.1035 14.2368 10.7195 14.0828 10.3032C14.2198 9.89883 14.3597 9.50047 14.4998 9.11629C14.6385 9.49466 14.7759 9.88477 14.9176 10.3032C14.7758 10.6834 14.6386 11.0679 14.4998 11.4714Z" fill="#1B1C1E"/>
<path d="M21.8083 7.63403C21.5153 7.75675 21.2243 7.88416 20.9355 8.01621L20.8991 8.03292L20.9002 8.07225C20.9057 8.28492 20.911 8.5017 20.9145 8.71733C20.511 8.91117 19.7446 9.23381 18.8889 9.3624C18.6179 8.98001 18.2596 8.39077 18.0363 7.69515C18.199 7.49719 18.3662 7.29943 18.5325 7.10612L18.5588 7.07556L18.5402 7.03992C18.3983 6.76635 18.2505 6.49003 18.101 6.21846L18.058 6.14063L18.0001 6.20841C17.8018 6.44106 17.6038 6.67921 17.4114 6.91694L17.386 6.94813L17.4056 6.98324C17.5347 7.21399 17.6622 7.44971 17.7865 7.68447C17.6311 7.94366 17.2431 8.53322 16.6637 9.03299C15.9645 8.66562 15.3487 8.0326 14.784 7.09999C14.9598 6.84143 15.1406 6.58277 15.3219 6.33056L15.3457 6.29756L15.3234 6.26351C15.0717 5.87784 14.8083 5.49027 14.5407 5.11168L14.4905 5.04062L14.4404 5.11168C14.1736 5.48942 13.9104 5.8771 13.6581 6.26436L13.6358 6.29841L13.6596 6.33077C13.8506 6.5962 14.0404 6.86787 14.2242 7.13859C13.7219 8.0639 13.1593 8.69681 12.5055 9.07127C11.8633 8.53057 11.4494 7.87165 11.3151 7.64037C11.4378 7.41068 11.5642 7.17973 11.6916 6.953L11.7113 6.918L11.686 6.88627C11.4934 6.64722 11.2978 6.41054 11.0991 6.17627L11.0415 6.10837L10.9985 6.186C10.8479 6.45767 10.6991 6.73357 10.5566 7.00608L10.538 7.04172L10.5642 7.07239C10.7375 7.27448 10.9111 7.48154 11.0805 7.68828C10.8452 8.40991 10.4642 9.01723 10.176 9.41031C9.26842 9.25581 8.43648 8.88568 8.08559 8.71405C8.08957 8.50096 8.09441 8.28523 8.0999 8.07225L8.10086 8.03292L8.06461 8.01621C7.77751 7.88497 7.48374 7.75627 7.1918 7.63403L7 7.55376L7.11725 7.72296C7.40618 8.14025 7.69253 8.56896 7.96855 8.99608L7.97759 9.00994C8.72918 10.2039 9.43462 11.44 10.0744 12.6842L10.0948 12.7244L10.1391 12.717C13.0265 12.2395 15.9747 12.2395 18.8621 12.717L18.9065 12.7244L18.9269 12.6848C19.6074 11.3617 20.3575 10.0568 21.1553 8.80637L21.1574 8.80299C21.3941 8.44005 21.6382 8.07691 21.8829 7.7236L22 7.5544L21.8083 7.63403ZM7.96264 8.74979V8.76312C7.75724 8.44835 7.54822 8.13587 7.33562 7.82575C7.55075 7.91754 7.76525 8.01229 7.97662 8.10863C7.97114 8.32172 7.96651 8.53724 7.96264 8.74979V8.74979ZM17.533 6.9603C17.6987 6.7563 17.8666 6.55406 18.0367 6.35361C18.1646 6.58732 18.291 6.82398 18.4132 7.05896C18.2469 7.25224 18.0827 7.44726 17.9205 7.64397L17.9098 7.65645C17.7868 7.42302 17.6612 7.19096 17.533 6.9603V6.9603ZM10.6839 7.02628C10.8077 6.79025 10.934 6.5555 11.0628 6.3221C11.2316 6.52207 11.4 6.72627 11.5649 6.93037C11.4387 7.15583 11.3133 7.38509 11.1919 7.61351L11.1855 7.62546C11.0209 7.42454 10.8521 7.22319 10.6839 7.02628ZM18.8377 12.5907C15.9659 12.1207 13.0348 12.1207 10.163 12.5907C9.52476 11.3521 8.82169 10.1219 8.07311 8.93359L8.07128 8.9302L8.06881 8.92714L7.98921 8.80425L8.00233 8.80753C8.34429 8.9762 9.22862 9.37774 10.1931 9.53594L10.2303 9.54197L10.2526 9.51204C10.5524 9.10776 10.9612 8.46448 11.207 7.69536C11.3438 7.93161 11.7801 8.62882 12.4601 9.19045L12.4924 9.21721L12.5293 9.1968C13.2272 8.80933 13.8227 8.14406 14.3499 7.16312L14.3669 7.1314L14.3468 7.10168C14.1639 6.83139 13.9744 6.55993 13.7838 6.29428C14.0127 5.94436 14.2502 5.5939 14.4911 5.25106C14.7327 5.59464 14.9705 5.94489 15.1988 6.29397C15.0177 6.54671 14.8372 6.80569 14.6616 7.06425L14.6401 7.09597L14.6596 7.12854C15.2512 8.11529 15.9007 8.77919 16.6444 9.15894L16.6811 9.17766L16.7125 9.15111C17.3448 8.6156 17.7597 7.97042 17.9088 7.71789L17.9128 7.71091C18.0978 8.29549 18.4076 8.9007 18.8102 9.46202L18.8318 9.49216L18.869 9.48687C19.781 9.35659 20.5967 9.00655 21.0022 8.80912L21.012 8.80436C20.2349 10.0261 19.5037 11.2995 18.838 12.5907H18.8377ZM21.052 8.74144L21.0498 8.74482C21.0458 8.75138 21.0416 8.75794 21.0374 8.76439V8.75381C21.0334 8.53882 21.0286 8.32214 21.0233 8.10874C21.2357 8.01184 21.4494 7.91753 21.6643 7.82586C21.4584 8.12693 21.2525 8.43402 21.0523 8.74091L21.052 8.74144Z" fill="#1B1C1E"/>
<path d="M12.4721 10.2393L12.4679 10.2181L12.4513 10.2045C12.2305 10.0223 12.0593 9.88448 11.8967 9.75779L11.8783 9.74341L11.8547 9.74489C11.8171 9.74732 11.7807 9.75081 11.7435 9.75546L11.6776 9.76403L11.6919 9.82748C11.7195 9.95184 11.7473 10.0761 11.775 10.2001C11.8015 10.3185 11.8279 10.437 11.8543 10.5555L11.8588 10.5759L11.8754 10.5892C12.0914 10.7628 12.3151 10.9487 12.5403 11.1412L12.6741 11.2556L12.6405 11.0853C12.5834 10.7941 12.5257 10.5066 12.4721 10.2393V10.2393ZM11.9692 10.5105C11.9443 10.3986 11.9192 10.287 11.8939 10.1755C11.8711 10.073 11.8482 9.97052 11.8252 9.86809L11.8388 9.86692C11.991 9.98579 12.1519 10.1155 12.3557 10.2834C12.3976 10.4921 12.4417 10.7129 12.4864 10.938C12.3117 10.7899 12.1382 10.6466 11.9692 10.5105V10.5105Z" fill="#1B1C1E"/>
<path d="M17.1455 9.74532L17.122 9.74384L17.1036 9.75822C16.9408 9.88512 16.7701 10.0226 16.5488 10.2049L16.5324 10.2185L16.5282 10.2397C16.465 10.5542 16.4122 10.8185 16.3597 11.0857L16.3262 11.2568L16.4599 11.1424C16.6851 10.9497 16.9089 10.764 17.1249 10.5904L17.1413 10.577L17.146 10.5566C17.1729 10.4351 17.2 10.3138 17.2272 10.1926C17.2544 10.0715 17.2814 9.95019 17.3084 9.82865L17.3226 9.7652L17.2568 9.75663C17.2195 9.75124 17.1831 9.74775 17.1455 9.74532V9.74532ZM17.1078 10.1668C17.0822 10.2814 17.0566 10.396 17.0311 10.5105C16.8568 10.651 16.6842 10.7935 16.5133 10.938C16.5539 10.7325 16.596 10.5223 16.6439 10.2834C16.8477 10.1155 17.0087 9.98579 17.1609 9.86693L17.1745 9.86809C17.1522 9.9675 17.13 10.0671 17.1078 10.1668V10.1668Z" fill="#1B1C1E"/>
<path d="M18.8922 10.4694L18.8746 10.4818L18.8667 10.5095C18.7914 10.7793 18.7127 11.0582 18.6379 11.3327L18.5925 11.4991L18.7333 11.3965C18.9635 11.2288 19.2007 11.0621 19.4381 10.9012L19.4559 10.8891L19.462 10.8686C19.5367 10.6193 19.6234 10.3293 19.7115 10.045L19.7607 9.88556L19.6191 9.97746C19.3908 10.1257 19.1531 10.2867 18.8922 10.4694V10.4694ZM19.3508 10.8144C19.1664 10.9396 18.9823 11.0682 18.8014 11.198C18.8608 10.9826 18.9216 10.766 18.9809 10.555C19.1804 10.4153 19.3664 10.2886 19.5452 10.1703C19.4766 10.3944 19.4101 10.6165 19.3508 10.8144V10.8144Z" fill="#1B1C1E"/>
<path d="M10.1302 10.6245C9.86897 10.4415 9.632 10.2802 9.40567 10.1315L9.26465 10.0389L9.34307 10.2972C9.41525 10.5351 9.4899 10.7811 9.56143 11.0235L9.56746 11.044L9.58531 11.0562C9.80841 11.2085 10.0451 11.3751 10.2878 11.5516L10.4294 11.6546L10.1479 10.6369L10.1302 10.6245ZM9.67277 10.9696C9.6093 10.7545 9.54368 10.537 9.47914 10.325C9.65642 10.4434 9.84187 10.5703 10.0414 10.71L10.2192 11.3528C10.0314 11.2178 9.84832 11.0893 9.67277 10.9696V10.9696Z" fill="#1B1C1E"/>
<path d="M9.8764 12.9905L9.93772 13.3737C13.0353 12.8142 16.2106 12.8142 19.3082 13.3737C19.3288 13.2459 19.3492 13.1182 19.3696 12.9905C16.2315 12.4236 13.0145 12.4236 9.8764 12.9905V12.9905Z" fill="#1B1C1E"/>
<path d="M21.9546 7.54328C21.6606 7.66637 21.3701 7.79352 21.0833 7.92472C21.0892 8.15265 21.0943 8.3805 21.0983 8.60829C20.7253 8.79049 19.8986 9.15004 18.9828 9.28086C18.6767 8.85384 18.3142 8.24853 18.0905 7.53598C18.2604 7.32963 18.4331 7.12476 18.6085 6.92137C18.4661 6.64705 18.3199 6.37369 18.17 6.10128C17.9704 6.33506 17.7744 6.5707 17.5821 6.80821C17.7175 7.0513 17.8499 7.29523 17.9793 7.54L17.9785 7.54138C17.8207 7.80871 17.4157 8.4338 16.7952 8.95927C16.13 8.62013 15.4659 8.00435 14.8349 6.95214C15.0175 6.68311 15.2042 6.41574 15.3949 6.15003C15.1427 5.76362 14.8822 5.38028 14.6135 5C14.3449 5.3807 14.0845 5.76418 13.8325 6.15045C14.0323 6.42829 14.2275 6.70796 14.4183 6.98947C13.8589 8.03005 13.2491 8.65038 12.6219 8.99872C11.9449 8.43962 11.5139 7.75087 11.3691 7.49633V7.49569C11.4969 7.25599 11.6277 7.017 11.7613 6.77871C11.569 6.5407 11.3735 6.30432 11.1747 6.06955C11.0242 6.34147 10.8771 6.61438 10.7337 6.88827C10.9159 7.10082 11.0952 7.31486 11.2716 7.53038C11.0337 8.27581 10.6428 8.90312 10.3261 9.33024C9.3877 9.17627 8.52822 8.79324 8.14678 8.60448C8.15087 8.37782 8.15589 8.15113 8.16184 7.9244C7.87499 7.7932 7.58455 7.66606 7.29053 7.54296C7.58226 7.96427 7.86638 8.38917 8.14291 8.81767C8.90357 10.0249 9.60635 11.2561 10.2513 12.5112C13.1454 12.0332 16.1004 12.0332 18.9946 12.5112C19.6739 11.1905 20.4176 9.89607 21.2257 8.62785V8.62732C21.4634 8.26375 21.7063 7.90241 21.9546 7.54328ZM9.74268 10.8608C9.66146 10.5858 9.57777 10.3109 9.49419 10.0359C9.73913 10.1968 9.97933 10.3612 10.2172 10.5279C10.2936 10.8045 10.3701 11.0811 10.4467 11.3578C10.216 11.1895 9.98073 11.0228 9.74268 10.8608ZM12.0362 10.3979C11.9824 10.1547 11.9278 9.91292 11.8737 9.6698C11.909 9.66515 11.9444 9.66177 11.9813 9.65923C12.1685 9.80506 12.3522 9.95438 12.5346 10.1049C12.5912 10.386 12.6474 10.668 12.7031 10.9509C12.4848 10.7646 12.2623 10.5795 12.0362 10.3979ZM14.6217 11.5148C14.4687 11.0612 14.3082 10.609 14.1402 10.1583C14.2945 9.70227 14.455 9.24754 14.6217 8.79409C14.7902 9.24776 14.9511 9.70248 15.1045 10.1583C14.9362 10.6097 14.7752 11.0618 14.6217 11.5147V11.5148ZM17.2084 10.3979C16.9825 10.5796 16.7599 10.7647 16.5415 10.9512C16.5969 10.6688 16.653 10.3868 16.7099 10.1052C16.8928 9.95469 17.0757 9.80537 17.2633 9.65955C17.2997 9.66187 17.3351 9.66526 17.3708 9.67012C17.317 9.91282 17.2632 10.1547 17.2084 10.3979ZM19.5256 10.7057C19.2866 10.8679 19.0511 11.0336 18.8192 11.2028C18.8945 10.9261 18.9722 10.6495 19.0499 10.3728C19.2877 10.2062 19.5291 10.0418 19.7751 9.88204C19.6904 10.1558 19.6082 10.4301 19.5256 10.7056V10.7057Z" fill="#1B1C1E"/>
</g>
<defs>
<clipPath id="clip0_31_221">
<rect width="15" height="20.3571" fill="white" transform="translate(7 5)"/>
</clipPath>
</defs>
</svg>
